<?xml version="1.0" encoding="UTF-8"?>
<svg id="a" data-name="Layer 1" xmlns="http://www.w3.org/2000/svg" viewBox="0 0 167.07 245.06">
  <defs>
    <style>
      .b {
        fill: #aadff1;
      }

      .b, .c, .d {
        stroke-width: 0px;
      }

      .c {
        fill: #29abe2;
      }

      .d {
        fill: #005f94;
      }
    </style>
  </defs>
  <g>
    <path class="d" d="M81.69,156.85c1,0,1.83.33,2.49.98.66.66.98,1.5.98,2.55v35.76c0,1-.33,1.84-.98,2.52-.66.68-1.49,1.01-2.49,1.01s-1.83-.34-2.49-1.01c-.66-.68-.98-1.51-.98-2.52v-2.84l1.27.52c0,.5-.27,1.11-.81,1.82-.54.71-1.27,1.42-2.2,2.11s-2.02,1.28-3.27,1.76-2.61.72-4.08.72c-2.66,0-5.07-.68-7.23-2.05-2.16-1.37-3.87-3.26-5.12-5.67-1.25-2.41-1.88-5.18-1.88-8.3s.63-5.95,1.88-8.36c1.25-2.41,2.94-4.3,5.06-5.67,2.12-1.37,4.47-2.05,7.06-2.05,1.66,0,3.18.25,4.57.75,1.39.5,2.59,1.14,3.62,1.91,1.02.77,1.81,1.55,2.37,2.34.56.79.84,1.46.84,2l-2.08.75v-15.51c0-1,.33-1.84.98-2.52.66-.68,1.48-1.01,2.49-1.01ZM70,193.89c1.7,0,3.18-.42,4.46-1.27,1.27-.85,2.27-2.01,2.98-3.47.71-1.47,1.07-3.11,1.07-4.92s-.36-3.51-1.07-4.98c-.71-1.47-1.71-2.62-2.98-3.47-1.27-.85-2.76-1.27-4.46-1.27s-3.12.43-4.4,1.27c-1.27.85-2.27,2.01-2.98,3.47-.71,1.47-1.07,3.12-1.07,4.98s.36,3.45,1.07,4.92c.71,1.47,1.71,2.62,2.98,3.47,1.27.85,2.74,1.27,4.4,1.27Z"/>
    <path class="d" d="M138.8,158.99c.89,0,1.74.34,2.55,1.01s1.22,1.59,1.22,2.75c0,.35-.06.73-.17,1.16l-11.4,33.56c-.23.69-.65,1.22-1.24,1.59-.6.37-1.23.57-1.88.61-.66,0-1.3-.19-1.94-.58-.64-.39-1.13-.95-1.48-1.68l-8.56-19.44.52.35-8.45,19.1c-.35.73-.84,1.29-1.48,1.68s-1.28.58-1.94.58c-.62-.04-1.23-.24-1.85-.61s-1.04-.9-1.27-1.59l-11.4-33.56c-.12-.42-.17-.81-.17-1.16,0-1.16.41-2.07,1.24-2.75.83-.68,1.69-1.01,2.58-1.01.73,0,1.42.19,2.05.58s1.07.95,1.3,1.68l9.2,27.89-1.27-.06,8.22-19.73c.31-.69.75-1.24,1.33-1.65s1.23-.59,1.97-.55c.73-.04,1.39.14,1.97.55s1,.95,1.27,1.65l7.52,18.86-.93.58,9.08-27.54c.23-.73.68-1.29,1.33-1.68s1.35-.58,2.08-.58Z"/>
  </g>
  <path class="c" d="M134.68,91.63c-17.05-24.55-36.48-52.5-46.38-88.3-1.36-4.44-8.87-4.44-10.23,0-9.54,35.8-28.64,63.76-45.68,88.3C15,116.52,0,138.34,0,161.53c0,7.12.9,14.04,2.59,20.65l10.23-2.7c-1.46-5.75-2.24-11.76-2.24-17.95,0-20.11,13.98-40.22,30.34-63.76h0c15-21.48,31.71-45.68,42.62-75.69,10.91,30.01,27.62,54.21,42.62,75.69,16.37,23.52,30.34,43.98,30.34,63.76,0,40.24-32.74,72.96-72.96,72.96-34.03.01-62.7-23.43-70.72-55.01l-10.23,2.7c9.23,36.09,42.04,62.89,80.94,62.89,46.03,0,83.54-37.51,83.54-83.54,0-23.19-15-44.67-32.39-69.9Z"/>
  <path class="c" d="M106.64,213.27c-1.33-1.87-3.83-2.56-6-1.81-5.42,1.87-11.23,2.9-17.26,2.91-13.99-.04-26.79-5.51-36.35-14.45-1.94-1.81-4.96-1.76-6.9.04h0c-2.17,2.01-2.18,5.46-.02,7.48,11.32,10.56,26.46,17.06,43.07,17.16.03,0,.05,0,.08,0,.04,0,.08,0,.12,0,.05,0,.1,0,.16,0,.04,0,.07-.01.11-.01,7.2-.04,14.13-1.29,20.58-3.55,3.17-1.11,4.37-5.01,2.41-7.77Z"/>
  <circle class="b" cx="34.3" cy="193.92" r="4.65"/>
</svg>